<?xml version="1.0" encoding="iso-8859-1"?>
<!-- Generator: Adobe Illustrator 19.0.0, SVG Export Plug-In . SVG Version: 6.00 Build 0)  -->
<svg version="1.1" id="Layer_1" xmlns="http://www.w3.org/2000/svg" xmlns:xlink="http://www.w3.org/1999/xlink" x="0px" y="0px"
	 viewBox="0 0 511.883 511.883" style="enable-background:new 0 0 511.883 511.883;" xml:space="preserve">
<path style="fill:#E6E9ED;" d="M501.229,245.272H10.662C4.773,245.272,0,250.044,0,255.934c0,5.89,4.772,10.662,10.662,10.662
	h490.567c5.873,0,10.654-4.772,10.654-10.662C511.883,250.044,507.102,245.272,501.229,245.272z"/>
<path style="fill:#967ADC;" d="M490.544,255.933c0,129.588-105.038,234.626-234.602,234.626
	c-129.572,0-234.61-105.038-234.61-234.626c0-129.572,105.038-234.61,234.61-234.61C385.505,21.323,490.544,126.361,490.544,255.933
	z"/>
<path style="fill:#AC92EB;" d="M255.942,63.977h-0.008C149.927,63.985,63.986,149.919,63.986,255.933l0,0
	c0,5.89,4.772,10.662,10.662,10.662c5.889,0,10.669-4.772,10.669-10.662v-0.008c0-23.042,4.507-45.38,13.395-66.398
	c8.592-20.316,20.902-38.569,36.578-54.246c15.676-15.676,33.93-27.986,54.246-36.578c21.019-8.889,43.365-13.396,66.406-13.396l0,0
	c5.889,0,10.662-4.78,10.662-10.669C266.603,68.75,261.831,63.977,255.942,63.977z"/>
<polygon style="fill:#E6E9ED;" points="117.31,341.25 196.525,209.217 275.75,341.25 "/>
<polygon style="fill:#F5F7FA;" points="183.326,341.25 288.95,156.401 394.566,341.25 "/>
<g>
</g>
<g>
</g>
<g>
</g>
<g>
</g>
<g>
</g>
<g>
</g>
<g>
</g>
<g>
</g>
<g>
</g>
<g>
</g>
<g>
</g>
<g>
</g>
<g>
</g>
<g>
</g>
<g>
</g>
</svg>
